<?xml version="1.0" standalone="no"?>
<!DOCTYPE svg PUBLIC "-//W3C//DTD SVG 1.1//EN" "http://www.w3.org/Graphics/SVG/1.1/DTD/svg11.dtd" >
<svg xmlns="http://www.w3.org/2000/svg">
<metadata>Generated by IcoMoon</metadata>
<defs>
<font id="icomoon" horiz-adv-x="1024">
<font-face units-per-em="1024" ascent="960" descent="-64" />
<missing-glyph horiz-adv-x="1024" />
<glyph unicode="&#x20;" horiz-adv-x="512" d="" />
<glyph unicode="&#xe900;" glyph-name="angle-down" horiz-adv-x="1664" d="M814.587 326.436l633.58 633.564 181.018-181.019-814.597-814.593-814.587 814.593 181.020 181.019 633.567-633.564z" />
<glyph unicode="&#xe901;" glyph-name="angle-left" horiz-adv-x="630" d="M222.807 458.746l389.886 389.892-111.396 111.396-501.288-501.288 501.288-501.281 111.396 111.395-389.886 389.886z" />
<glyph unicode="&#xe902;" glyph-name="angle-right" horiz-adv-x="630" d="M389.886 458.746l-389.886 389.892 111.396 111.396 501.288-501.288-501.288-501.281-111.396 111.395 389.886 389.886z" />
<glyph unicode="&#xe903;" glyph-name="bank" horiz-adv-x="1132" d="M900.813 128.482v415.76h-46.196v-415.76h46.196zM970.105 128.482h11.55c19.135 0 34.646-15.508 34.646-34.646 0-19.135-15.511-34.646-34.646-34.646h-854.617c-19.137 0-34.647 15.511-34.647 34.646 0 19.138 15.51 34.646 34.647 34.646h11.549v415.76h-11.549c-19.137 0-34.647 15.511-34.647 34.646 0 19.138 15.51 34.646 34.647 34.646h854.617c19.135 0 34.646-15.508 34.646-34.646 0-19.135-15.511-34.646-34.646-34.646h-11.55v-415.76zM785.324 128.482v415.76h-138.588v-415.76h138.588zM577.444 128.482v415.76h-46.196v-415.76h46.196zM461.956 128.482v415.76h-138.588v-415.76h138.588zM254.075 128.482v415.76h-46.195v-415.76h46.195zM34.647 12.994h1039.397c19.138 0 34.649-15.508 34.649-34.646 0-19.135-15.511-34.646-34.649-34.646h-1039.397c-19.137 0-34.647 15.511-34.647 34.646 0 19.138 15.51 34.646 34.647 34.646zM564.97 957.693l513.186-230.978c30.634-13.787 22.197-66.984-10.628-66.984h-1026.395c-32.824 0-41.259 53.197-10.629 66.984l513.185 230.978c6.839 3.077 14.42 3.077 21.256 0h0.024zM554.342 888.238l-367.739-159.213h735.501l-367.762 159.213z" />
<glyph unicode="&#xe904;" glyph-name="bookmark" d="M85.333 746.667l298.667 128 256-128 268.928 115.255c10.833 4.641 23.373-0.375 28.015-11.205 1.135-2.656 1.724-5.515 1.724-8.404v-692.98l-298.667-128-256 128-268.93-115.255c-10.83-4.642-23.371 0.375-28.012 11.204-1.138 2.654-1.725 5.517-1.725 8.405v692.979zM682.667 132.459l170.667 73.143v539.653l-170.667-73.143v-539.654zM597.333 138.074v534.521l-170.667 85.333v-534.521l170.667-85.333zM341.333 223.889v539.652l-170.667-73.143v-539.653l170.667 73.143z" />
<glyph unicode="&#xe905;" glyph-name="calendar" d="M771.174 498.695c20.926 0 37.888 18.376 37.888 41.045s-16.962 41.046-37.888 41.046c-20.926 0-37.888-18.376-37.888-41.046s16.962-41.045 37.888-41.045zM864 879.947h-51.968v40.022c-0.475 10.283-4.893 19.988-12.339 27.098s-17.342 11.076-27.641 11.076c-10.291 0-20.195-3.967-27.641-11.076-7.439-7.109-11.864-16.814-12.339-27.098v-40.022h-182.099v40.022c-0.475 10.283-4.895 19.988-12.341 27.098s-17.344 11.076-27.638 11.076c-10.294 0-20.193-3.967-27.638-11.076s-11.865-16.814-12.34-27.098v-40.022h-179.882v40.022c-0.475 10.283-4.895 19.988-12.341 27.098s-17.344 11.076-27.638 11.076c-10.294 0-20.193-3.967-27.638-11.076s-11.865-16.814-12.34-27.098v-40.022h-50.176c-42.421-0.045-83.091-16.916-113.087-46.912s-46.868-70.666-46.913-113.088v-624.042c0.068-42.408 16.949-83.054 46.943-113.035 29.994-29.974 70.651-46.833 113.057-46.877h306.006c10.283 0.475 19.988 4.893 27.097 12.339s11.076 17.342 11.076 27.633c0 10.299-3.967 20.195-11.076 27.641s-16.814 11.864-27.097 12.339h-306.006c-21.206 0-41.544 8.426-56.539 23.42s-23.419 35.335-23.419 56.539v624.042c0 10.508 2.071 20.912 6.095 30.618s9.92 18.525 17.355 25.95c7.434 7.426 16.258 13.314 25.969 17.327s20.117 6.073 30.625 6.062h50.005v-40.022c0-10.614 4.217-20.794 11.722-28.299s17.685-11.722 28.3-11.722c10.614 0 20.794 4.217 28.3 11.722s11.722 17.685 11.722 28.299v40.107h179.882v-40.022c0-10.614 4.217-20.794 11.722-28.299s17.685-11.723 28.3-11.723c10.614 0 20.794 4.217 28.299 11.723s11.722 17.684 11.722 28.299v40.022h181.933v-40.022c0-10.614 4.213-20.794 11.717-28.299s17.686-11.723 28.299-11.723c10.62 0 20.795 4.217 28.299 11.723 7.512 7.505 11.725 17.684 11.725 28.299v40.022h51.968c10.518 0.011 20.926-2.052 30.647-6.070 9.713-4.018 18.542-9.914 25.98-17.349 7.431-7.435 13.327-16.263 17.342-25.98 4.023-9.716 6.085-20.13 6.071-30.645v-487.936c0-10.615 4.22-20.797 11.725-28.301s17.686-11.717 28.299-11.717c10.613 0 20.795 4.213 28.299 11.717s11.725 17.686 11.725 28.301v487.936c-0.051 42.436-16.933 83.119-46.943 113.118-30.018 29.999-70.707 46.86-113.145 46.882zM597.331 498.695c22.668 0 41.045 18.376 41.045 41.045s-18.376 41.046-41.045 41.046c-22.669 0-41.046-18.376-41.046-41.046s18.376-41.045 41.046-41.045zM423.495 327.938c20.925 0 37.888 16.963 37.888 37.888s-16.963 37.888-37.888 37.888c-20.925 0-37.888-16.963-37.888-37.888s16.963-37.888 37.888-37.888zM249.581 498.695c22.668 0 41.046 18.376 41.046 41.045s-18.377 41.046-41.046 41.046c-22.668 0-41.046-18.376-41.046-41.046s18.377-41.045 41.046-41.045zM249.581 327.938c22.668 0 41.046 16.963 41.046 37.888s-18.377 37.888-41.046 37.888c-22.668 0-41.046-16.963-41.046-37.888s18.377-37.888 41.046-37.888zM249.581 150.908c22.668 0 41.046 18.381 41.046 41.048s-18.377 41.044-41.046 41.044c-22.668 0-41.046-18.377-41.046-41.044s18.377-41.048 41.046-41.048zM423.495 150.908c20.925 0 37.888 18.381 37.888 41.048s-16.963 41.044-37.888 41.044c-20.925 0-37.888-18.377-37.888-41.044s16.963-41.048 37.888-41.048zM597.331 327.938c22.668 0 41.045 16.963 41.045 37.888s-18.376 37.888-41.045 37.888c-22.669 0-41.046-16.963-41.046-37.888s18.376-37.888 41.046-37.888zM597.331 150.908c22.668 0 41.045 18.381 41.045 41.048s-18.376 41.044-41.045 41.044c-22.669 0-41.046-18.377-41.046-41.044s18.376-41.048 41.046-41.048zM771.174 327.938c20.926 0 37.888 16.963 37.888 37.888s-16.962 37.888-37.888 37.888c-20.926 0-37.888-16.963-37.888-37.888s16.962-37.888 37.888-37.888zM771.174 150.908c20.926 0 37.888 18.381 37.888 41.048s-16.962 41.044-37.888 41.044c-20.926 0-37.888-18.377-37.888-41.044s16.962-41.048 37.888-41.048zM423.495 498.695c20.925 0 37.888 18.376 37.888 41.045s-16.963 41.046-37.888 41.046c-20.925 0-37.888-18.376-37.888-41.046s16.963-41.045 37.888-41.045zM944.048 720v-624.044c0.015-10.503-2.041-20.912-6.056-30.625-4.016-9.706-9.904-18.534-17.328-25.966-7.424-7.439-16.245-13.334-25.951-17.357s-20.114-6.093-30.618-6.093h-446.038c-10.614 0-20.795-4.22-28.3-11.725s-11.721-17.686-11.721-28.299c0-10.613 4.216-20.795 11.721-28.299s17.685-11.717 28.3-11.717h446.382c42.408 0.066 83.068 16.94 113.057 46.936 29.996 29.989 46.87 70.649 46.943 113.057v624.132z" />
<glyph unicode="&#xe906;" glyph-name="call" d="M362.13 522.974c53.273-93.679 131.165-171.571 224.844-224.842l50.318 70.446c16.731 23.415 48.31 30.652 73.569 16.856 80.031-43.719 168.476-70.286 260.739-77.591 29.588-2.344 52.4-27.034 52.4-56.713v-253.884c0-29.167-22.062-53.606-51.075-56.587-30.145-3.1-60.558-4.659-91.147-4.659-486.992 0-881.778 394.786-881.778 881.778 0 30.591 1.56 61.001 4.659 91.15 2.982 29.014 27.423 51.073 56.591 51.073h253.882c29.678 0 54.369-22.815 56.711-52.4 7.303-92.262 33.872-180.71 77.591-260.742 13.796-25.256 6.559-56.838-16.856-73.565l-70.448-50.32zM218.695 560.344l108.086 77.204c-30.648 66.159-51.651 136.321-62.403 208.674h-150.084c-0.344-9.462-0.516-18.944-0.516-28.444 0-424.152 343.848-768 768-768 9.5 0 18.984 0.171 28.444 0.518v150.084c-72.351 10.752-142.512 31.755-208.674 62.401l-77.204-108.089c-31.232 12.134-61.394 26.414-90.305 42.65l-3.305 1.883c-111.479 63.391-204.115 156.029-267.509 267.509l-1.881 3.305c-16.239 28.911-30.515 59.073-42.649 90.305z" />
<glyph unicode="&#xe908;" glyph-name="documents" horiz-adv-x="848" d="M701.215-49.535h-670.143c-17.15 0-31.072 13.921-31.072 31.071v857.228c0 17.15 13.921 31.071 31.072 31.071h190.431l81.063 81.062c5.626 5.613 13.394 9.103 21.969 9.103h466.842c17.148 0 31.071-13.921 31.071-31.072v-857.228c0-17.151-13.921-31.071-31.071-31.071h-59.094v-59.094c0-17.151-13.923-31.071-31.074-31.071h0.006zM309.386 869.832h188.527c8.575 0 16.34-3.489 21.969-9.102l203.302-203.303c6.053-6.068 9.087-14.014 9.087-21.969l0.015-532.697h28.022v795.088h-422.897l-28.025-28.016zM528.981 763.752v-97.222h97.224l-97.224 97.222zM670.141 604.388h-172.231c-17.151 0-31.071 13.921-31.071 31.071v172.231h-404.682v-795.089h607.984v591.787zM192.205 157.632c-17.15 0-31.072 13.921-31.072 31.071s13.921 31.071 31.072 31.071h347.888c17.151 0 31.071-13.921 31.071-31.071s-13.921-31.071-31.071-31.071h-347.888zM192.205 410.182c-17.15 0-31.072 13.921-31.072 31.071s13.921 31.074 31.072 31.074h347.888c17.151 0 31.071-13.923 31.071-31.074 0-17.148-13.921-31.071-31.071-31.071h-347.888zM192.205 283.911c-17.15 0-31.072 13.921-31.072 31.071s13.921 31.074 31.072 31.074h347.888c17.151 0 31.071-13.921 31.071-31.074 0-17.148-13.921-31.071-31.071-31.071h-347.888z" />
<glyph unicode="&#xe909;" glyph-name="eye-big" horiz-adv-x="1252" d="M615.464 960c306.751 0 561.954-220.715 615.458-512-53.504-291.282-308.708-512-615.458-512-306.757 0-561.959 220.718-615.464 512 53.505 291.285 308.706 512 615.464 512zM615.464 49.778c240.959 0 447.147 167.708 499.337 398.222-52.19 230.512-258.378 398.222-499.337 398.222-240.967 0-447.153-167.71-499.346-398.222 52.192-230.514 258.379-398.222 499.346-398.222zM615.464 192c-141.389 0-256.005 114.614-256.005 256s114.615 256 256.005 256c141.38 0 256-114.615 256-256s-114.62-256-256-256zM615.464 305.778c78.546 0 142.222 63.676 142.222 142.222s-63.676 142.222-142.222 142.222c-78.549 0-142.227-63.676-142.227-142.222s63.678-142.222 142.227-142.222z" />
<glyph unicode="&#xe90a;" glyph-name="eye-small" horiz-adv-x="1489" d="M1479.987 513.474c-13.303 18.237-330.342 446.526-735.266 446.526-404.92 0-721.977-428.29-735.269-446.509-12.602-17.301-12.602-40.766 0-58.067 13.292-18.237 330.349-446.525 735.269-446.525 404.924 0 721.964 428.292 735.266 446.511 12.623 17.297 12.623 40.78 0 58.064zM744.721 107.287c-298.267 0-556.598 284.264-633.069 377.195 76.373 93.012 334.162 377.128 633.069 377.128 298.251 0 556.569-284.215 633.071-377.195-76.372-93.009-334.168-377.128-633.071-377.128zM744.709 779.636c-162.449 0-294.618-132.416-294.618-295.171s132.169-295.17 294.618-295.17c162.449 0 294.614 132.416 294.614 295.17s-132.165 295.171-294.614 295.171zM744.709 287.687c-108.306 0-196.41 88.273-196.41 196.778s88.108 196.778 196.41 196.778c108.303 0 196.413-88.273 196.413-196.778s-88.107-196.778-196.413-196.778z" />
<glyph unicode="&#xe90c;" glyph-name="friends" horiz-adv-x="1240" d="M842.496 49.386h294.912c-1.291 142.287-14.228 285.858-151.336 294.912-60.793-46.565-115.119-75.021-168.154-85.369-10.348 32.337-27.168 62.084-49.155 86.663 54.326-2.59 107.358 28.456 186.263 90.54 296.205 0 274.216-257.401 274.216-477.292l-386.749 0.008v90.54l0.003-0.003zM773.939 960c150.046 0 272.923-122.878 272.923-272.923s-122.877-272.923-272.923-272.923c-51.734 0-100.891 14.228-140.986 40.095 16.818 24.579 29.747 53.035 38.807 84.070 29.747-20.696 64.674-32.337 103.481-32.337 100.891 0 182.382 81.492 182.382 182.382s-81.492 182.383-182.382 182.383c-65.964 0-124.179-34.926-156.516-87.952-6.47 7.759-11.639 14.229-19.397 20.698-15.519 15.519-32.337 28.456-50.445 40.096 49.144 69.843 131.926 116.408 225.059 116.408l-0.003 0.003zM81.936 40.351h648.030c-1.291 126.758-12.937 254.814-135.817 262.575-139.695-107.358-237.999-107.358-377.694 0-122.878-7.761-133.23-135.809-134.519-262.575zM0.445-41.132c0 195.312-21.988 425.553 243.173 425.553 137.105-108.649 186.263-108.649 323.368 0 265.162 0 244.467-228.948 244.467-425.553h-811.008zM405.305 851.342c134.516 0 243.173-108.649 243.173-243.172 0-134.519-108.649-243.173-243.173-243.173-134.527 0.008-243.173 108.657-243.173 243.173 0 133.227 108.649 243.172 243.173 243.172zM405.305 769.851c-89.252 0-161.684-72.432-161.684-161.684s72.432-161.684 161.684-161.684c89.252 0 161.684 72.432 161.684 161.684s-72.432 161.684-161.684 161.684z" />
<glyph unicode="&#xe90e;" glyph-name="home" horiz-adv-x="1094" d="M377.579-60.807h684.374c13.757 0 24.909 11.152 24.909 24.906v950.048c0 13.755-11.152 24.907-24.909 24.907h-684.374c-13.754 0-24.906-11.152-24.906-24.907v-950.048c0-13.754 11.152-24.906 24.906-24.906zM1037.047 889.241v-900.235h-634.561v900.235h634.561zM501.762-60.812h202.289c13.754 0 24.906 11.152 24.906 24.906v286.417c0 13.754-11.152 24.906-24.906 24.906h-202.289c-13.757 0-24.909-11.152-24.909-24.906v-286.417c0-13.754 11.152-24.906 24.909-24.906zM679.145 225.606v-236.605h-152.476v236.605h152.476zM501.762 634.864h150.216c13.754 0 24.906 11.152 24.906 24.906v150.218c0 13.755-11.152 24.907-24.906 24.907h-150.216c-13.757 0-24.909-11.152-24.909-24.907v-150.218c0-13.754 11.152-24.906 24.909-24.906zM627.072 785.082v-100.403h-100.403v100.403h100.403zM767.488 634.864h150.218c13.754 0 24.906 11.152 24.906 24.906v150.218c0 13.755-11.152 24.907-24.906 24.907h-150.218c-13.754 0-24.906-11.152-24.906-24.907v-150.218c0-13.754 11.152-24.906 24.906-24.906zM892.8 785.082v-100.403h-100.406v100.403h100.406zM501.762 360.478h150.216c13.754 0 24.906 11.152 24.906 24.906v150.218c0 13.754-11.152 24.906-24.906 24.906h-150.216c-13.757 0-24.909-11.152-24.909-24.906v-150.218c0-13.754 11.152-24.906 24.909-24.906zM627.072 510.694v-100.403h-100.403v100.403h100.403zM767.488 360.478h150.218c13.754 0 24.906 11.152 24.906 24.906v150.218c0 13.754-11.152 24.906-24.906 24.906h-150.218c-13.754 0-24.906-11.152-24.906-24.906v-150.218c0-13.754 11.152-24.906 24.906-24.906zM892.8 510.694v-100.403h-100.406v100.403h100.406zM390.896 774.16l-0.002 0.001c-7.233 4.577-16.268 5.119-23.957 1.495l-331.702-156.397c0 0 0 0 0 0-8.719-4.11-14.289-12.886-14.289-22.53v-632.627c0-13.754 11.152-24.906 24.907-24.906h331.704c13.754 0 24.906 11.152 24.906 24.906v789.025c0 8.531-4.366 16.467-11.567 21.033zM352.647 713.844v-724.836h-281.888v591.93l281.888 132.906zM136.625 360.478h150.218c13.754 0 24.906 11.152 24.906 24.906v150.218c0 13.754-11.152 24.906-24.906 24.906h-150.218c-13.755 0-24.907-11.152-24.907-24.906v-150.218c0-13.754 11.152-24.906 24.907-24.906zM261.937 510.694v-100.403h-100.405v100.403h100.405z" />
<glyph unicode="&#xe90f;" glyph-name="home-2" horiz-adv-x="1095" d="M1054.644-59.418h-334.081c-17.272 0-31.272 14-31.272 31.27l0.010 690.598c0 17.27 14 31.272 31.27 31.272h334.084c17.27 0 31.27-14.003 31.27-31.272v-690.598c-0.007-17.263-14.010-31.27-31.28-31.27zM751.833 3.124h271.541v628.057h-271.541v-628.057zM720.563-59.413h-689.292c-17.27 0-31.271 14-31.271 31.27v956.872c0 17.27 14.001 31.271 31.271 31.271h689.292c17.27 0 31.27-14.001 31.27-31.271v-956.872c-0.007-17.263-14.007-31.27-31.277-31.27h0.007zM62.542 3.129h626.75v894.331h-626.75v-894.331zM360.091-59.421h-203.761c-17.27 0-31.271 14.003-31.271 31.272l0.008 288.482c0 17.27 14.001 31.27 31.271 31.27h203.751c17.272 0 31.272-14 31.272-31.27v-288.463c-0.007-17.27-14.010-31.28-31.272-31.28l0.002-0.012zM187.6 3.124h141.218v225.94h-141.218v-225.94zM307.624 641.255h-151.295c-17.27 0-31.271 14.003-31.271 31.272v151.294c0 17.27 14.001 31.271 31.271 31.271h151.295c17.272 0 31.272-14.001 31.272-31.271v-151.294c-0.010-17.263-14.010-31.272-31.272-31.272zM187.592 703.8h88.759v88.759h-88.759v-88.759zM575.269 641.255h-151.311c-17.27 0-31.272 14.003-31.272 31.272v151.294c0 17.27 14.003 31.271 31.272 31.271h151.311c17.27 0 31.27-14.001 31.27-31.271v-151.294c-0.007-17.263-14.007-31.272-31.27-31.272zM455.228 703.8h88.769v88.759h-88.769v-88.759zM957.938 364.882h-151.295c-17.27 0-31.27 14.003-31.27 31.272l0.007 151.295c0 17.27 14.003 31.272 31.27 31.272h151.297c17.27 0 31.27-14.003 31.27-31.272v-151.295c-0.007-17.27-14.010-31.272-31.28-31.272zM837.915 427.42h88.759v88.759h-88.759v-88.759zM307.624 364.882h-151.295c-17.27 0-31.271 14.003-31.271 31.272v151.295c0 17.27 14.001 31.272 31.271 31.272h151.295c17.272 0 31.272-14.003 31.272-31.272v-151.295c-0.010-17.27-14.010-31.272-31.272-31.272zM187.592 427.42h88.759v88.759h-88.759v-88.759zM575.269 364.882h-151.311c-17.27 0-31.272 14.003-31.272 31.272v151.295c0 17.27 14.003 31.272 31.272 31.272h151.311c17.27 0 31.27-14.003 31.27-31.272v-151.295c-0.007-17.27-14.007-31.272-31.27-31.272zM455.228 427.42h88.769v88.759h-88.769v-88.759z" />
<glyph unicode="&#xe910;" glyph-name="images" horiz-adv-x="1208" d="M87.229 792.071l744.842 81.916 10.082-90.742h83.183l-15.121 139.894c-1.255 11.341-6.302 20.167-15.121 27.727-8.825 7.561-18.899 10.084-30.25 8.826l-828.043-89.477c-22.681-2.523-39.067-22.681-36.544-45.371l71.842-652.84c1.257-11.34 6.303-21.423 15.121-27.727 7.561-6.302 16.387-8.825 26.471-8.825h5.038l81.916 8.825v83.183l-50.408-5.036-63.006 569.648zM1155.97 701.318h-831.803c-22.68 0-41.59-18.9-41.59-41.591v-656.62c0-22.68 18.902-41.59 41.59-41.59h831.803c22.68 0 41.59 18.902 41.59 41.59v656.644c0 22.68-18.902 41.583-41.59 41.583v-0.016zM1114.38 618.144v-378.092l-195.35 195.34c-16.387 16.387-42.848 16.387-59.234 0l-184-184-76.879 76.879c-15.121 15.121-42.848 15.121-59.234 0l-173.925-176.448v466.314l748.623 0.008zM764.014 44.704h-388.175l194.082 194.082 194.093-194.082zM881.228 44.704l-146.198 147.456 155.015 155.015 224.335-224.335v-78.136h-233.152zM574.965 473.217c0-34.805-28.21-63.015-63.015-63.015-34.803 0-63.015 28.21-63.015 63.015 0 34.803 28.213 63.015 63.015 63.015 34.805 0 63.015-28.213 63.015-63.015z" />
<glyph unicode="&#xe912;" glyph-name="list" horiz-adv-x="805" d="M693.019-64h-583.305c-60.596 0-109.714 49.118-109.714 109.714v804.571c0 60.596 49.119 109.714 109.714 109.714h335.287c29.216 0 57.234-11.665 77.819-32.367l248.018-249.606c20.409-20.553 31.895-48.343 31.895-77.346v-554.967c0-60.596-49.12-109.714-109.714-109.714zM438.857 886.857h-329.143c-20.188 0-36.571-16.384-36.571-36.571v-804.571c0-20.187 16.384-36.571 36.571-36.571h583.305c20.187 0 36.571 16.384 36.571 36.571v548.571h-181.029c-60.596 0-109.714 49.118-109.714 109.714l0.010 182.857zM678.244 667.429l-166.254 167.313v-130.742c0-20.187 16.384-36.571 36.571-36.571h129.682zM182.857 484.571c-20.188 0-36.571 16.384-36.571 36.571s16.384 36.571 36.571 36.571h292.571c20.187 0 36.571-16.384 36.571-36.571s-16.384-36.571-36.571-36.571h-292.571zM182.857 118.857c-20.188 0-36.571 16.384-36.571 36.571s16.384 36.571 36.571 36.571h438.857c20.187 0 36.571-16.384 36.571-36.571s-16.384-36.571-36.571-36.571h-438.857zM182.857 301.714c-20.188 0-36.571 16.384-36.571 36.571s16.384 36.571 36.571 36.571h438.857c20.187 0 36.571-16.384 36.571-36.571s-16.384-36.571-36.571-36.571h-438.857z" />
<glyph unicode="&#xe914;" glyph-name="pin" horiz-adv-x="838" d="M418.909 80.314l230.386 230.391c127.241 127.237 127.241 333.534 0 460.774-127.237 127.24-333.534 127.24-460.774 0s-127.24-333.538 0-460.774l230.388-230.391zM418.909-51.335l-296.213 296.211c-163.594 163.598-163.594 428.834 0 592.429s428.831 163.594 592.429 0c163.593-163.594 163.593-428.831 0-592.429l-296.215-296.211zM418.909 448c51.414 0 93.091 41.677 93.091 93.091s-41.677 93.091-93.091 93.091-93.091-41.678-93.091-93.091c0-51.414 41.677-93.091 93.091-93.091zM418.909 354.909c-102.825 0-186.182 83.358-186.182 186.182s83.356 186.182 186.182 186.182c102.824 0 186.182-83.356 186.182-186.182 0-102.824-83.358-186.182-186.182-186.182z" />
<glyph unicode="&#xe915;" glyph-name="search" d="M438.857 960c242.249 0 438.857-196.608 438.857-438.857s-196.608-438.857-438.857-438.857c-242.249 0-438.857 196.608-438.857 438.857s196.608 438.857 438.857 438.857zM438.857 179.81c188.587 0 341.333 152.747 341.333 341.333s-152.747 341.333-341.333 341.333c-188.587 0-341.333-152.747-341.333-341.333s152.747-341.333 341.333-341.333zM852.617 176.343l137.918-137.918-68.959-68.959-137.918 137.918 68.959 68.959z" />
<glyph unicode="&#xe916;" glyph-name="settings" d="M206.749 308.169h594.725c16.295 0 29.532 13.21 29.532 29.532 0 16.295-13.23 29.532-29.532 29.532h-594.725c-16.324 0-29.533-13.23-29.533-29.532-0.019-16.316 13.219-29.532 29.533-29.532zM592.732 219.535c0 16.295-13.23 29.532-29.532 29.532h-356.451c-16.324 0-29.533-13.23-29.533-29.532 0-16.326 13.21-29.536 29.533-29.536h356.451c16.302 0 29.532 13.22 29.532 29.536zM801.457 249.102h-120.125c-16.323 0-29.532-13.23-29.532-29.536 0-16.323 13.21-29.532 29.532-29.532h120.125c16.295 0 29.532 13.21 29.532 29.532 0 16.305-13.22 29.536-29.532 29.536zM504.32 610.553c49.275 0 89.313 40.409 88.6 89.904-0.676 48.162-40.407 87.342-88.6 87.342-48.456 0-88.62-39.724-88.62-88.62 0-48.886 39.762-88.63 88.62-88.63v0.003zM504.32 728.715c14.657 0 28.839-11.028 29.532-29.762-0.106-16.19-13.315-29.323-29.532-29.323-16.466 0-29.744 13.524-29.532 30.001 0.256 16.038 13.486 29.084 29.532 29.084zM978.705 127.020h-29.532v573.050c0 16.295-13.227 29.533-29.532 29.533h-148.903v21.533c0 13.991-9.789 26.049-23.467 28.903l-43.39 9.115c-17.268 3.61-27.494 21.362-21.992 38.105l13.8 42.077c4.352 13.276-1.198 27.809-13.295 34.782l-89.962 51.924c-12.093 6.991-27.457 4.533-36.779-5.886l-29.532-33c-11.745-13.124-32.266-13.124-44.012 0l-29.532 33c-9.325 10.419-24.685 12.857-36.782 5.886l-89.96-51.924c-12.095-6.991-17.648-21.505-13.295-34.809l13.819-42.047c5.486-16.743-4.771-34.533-22.009-38.144l-43.332-9.076c-13.677-2.857-23.486-14.933-23.486-28.904v-21.505h-148.904c-16.324 0-29.533-13.229-29.533-29.533v-573.049l-29.562-0.010c-16.324 0-29.533-13.23-29.533-29.532v-57.115c0-48.858 39.763-88.62 88.62-88.62h831c48.858 0 88.62 39.762 88.62 88.62v57.115c0 16.275-13.24 29.512-29.536 29.512zM296.601 727.133l19.867 4.162c51.647 10.838 82.466 64.21 66.038 114.371l-6.325 19.286 48.401 27.933 13.527-15.124c35.181-39.343 96.836-39.343 132.035 0l13.524 15.124 48.401-27.933-6.321-19.257c-16.466-50.142 14.343-103.534 65.997-114.351l19.869-4.162v-55.896l-19.896-4.162c-51.63-10.819-82.466-64.189-66.017-114.372l6.321-19.255-48.401-27.935-13.524 15.124c-35.202 39.325-96.857 39.325-132.038 0l-13.524-15.124-48.401 27.935 6.345 19.302c16.445 50.142-14.391 103.535-66.059 114.336l-19.848 4.162 0.010 55.837 0.020-0.001zM118.144 670.523h119.371v-23.257c0-13.991 9.81-26.049 23.486-28.924l43.352-9.076c17.228-3.591 27.494-21.361 22.010-38.086l-13.819-42.086c-4.371-13.295 1.2-27.808 13.295-34.809l89.96-51.924c12.097-6.991 27.46-4.533 36.782 5.888l29.532 32.997c11.742 13.124 32.266 13.124 44.012 0l29.532-32.997c9.322-10.421 24.655-12.879 36.782-5.888l89.941 51.924c12.124 6.991 17.667 21.507 13.295 34.809l-13.817 42.028c-5.485 16.763 4.741 34.533 21.989 38.144l43.353 9.097c13.677 2.856 23.487 14.913 23.487 28.903v23.257h119.371v-543.499h-771.951l0.010 543.499h0.028zM592.742 67.922v-57.112h-177.237v57.112h177.237zM59.069 40.359v27.563h297.351v-57.112h-267.826c-16.276 0-29.533 13.247-29.533 29.549h0.007zM949.193 40.359c0-16.275-13.257-29.532-29.532-29.532h-267.824v57.115h297.349l0.007-27.583z" />
<glyph unicode="&#xe917;" glyph-name="tasks" horiz-adv-x="768" d="M685.224 876.547h-140.572c-2.207 9.079-7.43 17.143-14.82 22.874-7.381 5.73-16.484 8.794-25.833 8.682h-28.444c-12.618 30.452-48.882 51.897-92.786 51.897s-80.182-21.445-92.752-51.897h-28.446c-9.341 0.111-18.445-2.952-25.826-8.682-7.381-5.738-12.603-13.794-14.818-22.874h-140.611c-21.293-0.024-41.714-8.5-56.769-23.556s-23.524-35.468-23.548-56.763v-779.907c0.024-21.291 8.492-41.705 23.548-56.769 15.056-15.056 35.476-23.524 56.769-23.546h604.913c21.291 0.023 41.714 8.491 56.769 23.546 15.056 15.064 23.524 35.479 23.546 56.769v779.907c-0.023 21.293-8.491 41.706-23.546 56.763-15.056 15.056-35.484 23.532-56.775 23.556zM623.113 203.551l-94.652-0.009c-13.15-0.031-23.802-10.681-23.831-23.831v-103.541h-362.2v660.237h85.063c7.96-10.825 20.604-17.191 34.040-17.135h242.469c13.437-0.048 26.086 6.318 34.057 17.135h85.063l-0.009-532.857zM592.23 155.876l-39.927-42.943v42.937l39.927 0.006zM267.579 860.425h41.516c6.326-0.008 12.39 2.5 16.868 6.976 4.466 4.468 6.975 10.532 6.975 16.857 0 13.246 21.311 28.056 49.832 28.056 28.524 0 49.826-14.794 49.826-28.056 0.031-13.151 10.681-23.802 23.831-23.832h41.532v-93.493h-230.379l0.001 93.492zM717.855 16.316c-0.009-8.658-3.445-16.953-9.572-23.071-6.118-6.118-14.413-9.563-23.071-9.572h-604.912c-8.659 0.009-16.953 3.453-23.070 9.572-6.127 6.121-9.564 14.413-9.572 23.071v779.907c0.008 8.651 3.445 16.952 9.572 23.070 6.119 6.119 14.413 9.563 23.070 9.571h139.587v-44.794h-101.317c-6.318 0-12.389-2.508-16.857-6.984-4.468-4.468-6.984-10.532-6.976-16.857v-707.942c-0.008-6.318 2.508-12.388 6.976-16.856s10.54-6.986 16.857-6.977h402.773c1.143 0.026 2.287 0.137 3.413 0.341 1.206-0.213 2.435-0.324 3.658-0.341 6.628 0 12.962 2.753 17.476 7.603l118.491 127.431c0.833 0.879 1.596 1.823 2.278 2.833 0.088 0.151 0.159 0.307 0.262 0.444 0.651 1.015 1.223 2.079 1.715 3.183 0.182 0.395 0.341 0.794 0.492 1.206 0.381 0.976 0.691 1.983 0.927 3.007 0.088 0.367 0.208 0.714 0.27 1.135 0.262 1.391 0.412 2.802 0.43 4.224v580.713c0 6.325-2.509 12.389-6.986 16.857-4.466 4.476-10.53 6.984-16.856 6.984h-101.299v44.794h139.585c8.658-0.008 16.953-3.452 23.071-9.571 6.127-6.119 9.563-14.421 9.572-23.070l0.011-779.909zM559.283 599.142c-0.031-13.15-10.684-23.811-23.834-23.831h-299.661c-13.167 0-23.832 10.667-23.832 23.831 0 13.167 10.667 23.834 23.832 23.834h299.661c13.153-0.031 23.802-10.684 23.834-23.834zM559.283 479.286c-0.031-13.15-10.684-23.802-23.834-23.834h-299.661c-13.167 0-23.832 10.675-23.832 23.834 0 13.167 10.667 23.839 23.832 23.839h299.661c13.153-0.031 23.802-10.689 23.834-23.839zM559.283 359.43c-0.031-13.15-10.684-23.802-23.834-23.834h-299.661c-12.524 0.873-22.246 11.287-22.246 23.842s9.722 22.969 22.246 23.831h299.661c13.153-0.031 23.802-10.689 23.834-23.839zM450.321 239.573c0-6.326-2.506-12.382-6.975-16.859-4.469-4.466-10.533-6.983-16.85-6.983h-190.705c-13.167 0-23.832 10.675-23.832 23.839 0 13.167 10.667 23.834 23.832 23.834h190.705c6.318 0 12.382-2.509 16.85-6.977 4.469-4.474 6.975-10.536 6.975-16.853z" />
<glyph unicode="&#xe91a;" glyph-name="todo" horiz-adv-x="751" d="M682.667 891.733h-102.4c0 37.646-30.62 68.267-68.267 68.267h-273.067c-37.646 0-68.267-30.621-68.267-68.267h-102.4c-37.646 0-68.267-30.621-68.267-68.267v-819.2c0-37.647 30.621-68.267 68.267-68.267h614.4c37.647 0 68.267 30.62 68.267 68.267v819.2c0 37.646-30.62 68.267-68.267 68.267zM238.933 891.733h273.067l-0.1-68.267h-272.969l0.002 68.267zM682.667 4.267h-614.4v819.2h102.4c0-37.646 30.621-68.267 68.267-68.267h273.067c37.647 0 68.267 30.621 68.267 68.267h102.4v-819.2zM204.796 598.671l-44.137 44.128-48.259-48.258 92.396-92.403 126.529 126.537-48.258 48.258-78.272-78.261zM375.467 618.667h238.933v-68.267h-238.933v68.267zM204.796 393.871l-44.137 44.128-48.259-48.258 92.396-92.403 126.529 126.537-48.258 48.258-78.272-78.261zM375.467 413.867h238.933v-68.267h-238.933v68.267zM204.796 189.071l-44.137 44.128-48.259-48.258 92.396-92.403 126.529 126.537-48.258 48.258-78.272-78.261zM375.467 209.067h238.933v-68.267h-238.933v68.267z" />
</font>
</defs>
</svg>
