<svg width="42" height="38" viewBox="0 0 42 38" fill="none" xmlns="http://www.w3.org/2000/svg">
<path fill-rule="evenodd" clip-rule="evenodd" d="M33.4286 30.8571V15.4285H31.7143V30.8571H33.4286ZM36 30.8571H36.4286C37.1387 30.8571 37.7143 31.4326 37.7143 32.1428C37.7143 32.8529 37.1387 33.4285 36.4286 33.4285H4.71429C4.00413 33.4285 3.42857 32.8529 3.42857 32.1428C3.42857 31.4326 4.00413 30.8571 4.71429 30.8571H5.14286V15.4285H4.71429C4.00413 15.4285 3.42857 14.8529 3.42857 14.1428C3.42857 13.4326 4.00413 12.8571 4.71429 12.8571H36.4286C37.1387 12.8571 37.7143 13.4326 37.7143 14.1428C37.7143 14.8529 37.1387 15.4285 36.4286 15.4285H36V30.8571ZM29.1429 30.8571V15.4285H24V30.8571H29.1429ZM21.4286 30.8571V15.4285H19.7143V30.8571H21.4286ZM17.1429 30.8571V15.4285H12V30.8571H17.1429ZM9.42857 30.8571V15.4285H7.71429V30.8571H9.42857ZM1.28571 35.1428H39.8571C40.5673 35.1428 41.1429 35.7183 41.1429 36.4285C41.1429 37.1386 40.5673 37.7142 39.8571 37.7142H1.28571C0.575554 37.7142 0 37.1386 0 36.4285C0 35.7183 0.575554 35.1428 1.28571 35.1428ZM20.9657 0.0856286L40.0097 8.65706C41.1465 9.16867 40.8334 11.1428 39.6153 11.1428H1.52643C0.308349 11.1428 -0.00467982 9.16869 1.13201 8.65706L20.176 0.0856286C20.4298 -0.0285429 20.7111 -0.0285429 20.9648 0.0856286H20.9657ZM20.5713 2.66306L6.92472 8.57134H34.2187L20.5713 2.66306Z" fill="black"/>
</svg>
