<svg width="14" height="14" viewBox="0 0 14 14" fill="none" xmlns="http://www.w3.org/2000/svg">
<g clip-path="url(#clip0_1303_4863)">
<path d="M10.5434 6.3069C10.8295 6.3069 11.0614 6.05566 11.0614 5.74574C11.0614 5.43581 10.8295 5.18457 10.5434 5.18457C10.2573 5.18457 10.0254 5.43581 10.0254 5.74574C10.0254 6.05566 10.2573 6.3069 10.5434 6.3069Z" fill="black"/>
<path d="M11.8125 1.09447H11.102V0.547298C11.0955 0.406704 11.0351 0.27402 10.9333 0.176822C10.8315 0.0796251 10.6962 0.0253906 10.5554 0.0253906C10.4147 0.0253906 10.2793 0.0796251 10.1775 0.176822C10.0758 0.27402 10.0153 0.406704 10.0088 0.547298V1.09447H7.51917V0.547298C7.51267 0.406704 7.45224 0.27402 7.35045 0.176822C7.24866 0.0796251 7.11333 0.0253906 6.97258 0.0253906C6.83184 0.0253906 6.69651 0.0796251 6.59471 0.176822C6.49292 0.27402 6.4325 0.406704 6.426 0.547298V1.09447H3.96667V0.547298C3.96017 0.406704 3.89975 0.27402 3.79795 0.176822C3.69616 0.0796251 3.56083 0.0253906 3.42008 0.0253906C3.27934 0.0253906 3.14401 0.0796251 3.04221 0.176822C2.94042 0.27402 2.88 0.406704 2.8735 0.547298V1.09447H2.1875C1.60753 1.09508 1.05149 1.32575 0.641386 1.73585C0.231284 2.14595 0.000617649 2.70199 0 3.28197L0 11.8138C0.000926315 12.3936 0.231729 12.9493 0.641798 13.3592C1.05187 13.769 1.60773 13.9995 2.1875 14.0001H6.37117C6.51176 13.9936 6.64444 13.9332 6.74164 13.8314C6.83884 13.7296 6.89307 13.5943 6.89307 13.4536C6.89307 13.3128 6.83884 13.1775 6.74164 13.0757C6.64444 12.9739 6.51176 12.9135 6.37117 12.907H2.1875C1.89757 12.907 1.61952 12.7918 1.41451 12.5868C1.20951 12.3818 1.09433 12.1037 1.09433 11.8138V3.28197C1.09433 3.13831 1.12265 2.99606 1.17766 2.86336C1.23267 2.73065 1.31329 2.61009 1.41493 2.50857C1.51656 2.40704 1.63721 2.32654 1.76997 2.27168C1.90274 2.21681 2.04501 2.18865 2.18867 2.1888H2.87233V2.73597C2.87233 2.88108 2.92998 3.02026 3.03259 3.12287C3.13521 3.22548 3.27438 3.28313 3.4195 3.28313C3.56462 3.28313 3.70379 3.22548 3.80641 3.12287C3.90902 3.02026 3.96667 2.88108 3.96667 2.73597V2.18763H6.426V2.7348C6.426 2.87992 6.48365 3.01909 6.58626 3.1217C6.68888 3.22432 6.82805 3.28197 6.97317 3.28197C7.11828 3.28197 7.25746 3.22432 7.36007 3.1217C7.46269 3.01909 7.52033 2.87992 7.52033 2.7348V2.18763H10.0077V2.7348C10.0077 2.87992 10.0653 3.01909 10.1679 3.1217C10.2705 3.22432 10.4097 3.28197 10.5548 3.28197C10.7 3.28197 10.8391 3.22432 10.9417 3.1217C11.0444 3.01909 11.102 2.87992 11.102 2.7348V2.18763H11.8125C11.9563 2.18748 12.0986 2.21568 12.2315 2.27062C12.3643 2.32556 12.485 2.40616 12.5867 2.50781C12.6883 2.60946 12.7689 2.73016 12.8238 2.863C12.8788 2.99584 12.907 3.13821 12.9068 3.28197V9.95297C12.9068 10.0981 12.9645 10.2373 13.0671 10.3399C13.1697 10.4425 13.3089 10.5001 13.454 10.5001C13.5991 10.5001 13.7383 10.4425 13.8409 10.3399C13.9435 10.2373 14.0012 10.0981 14.0012 9.95297V3.28197C14.0005 2.70179 13.7697 2.14558 13.3594 1.73544C12.949 1.3253 12.3927 1.09477 11.8125 1.09447Z" fill="black"/>
<path d="M8.16664 6.3069C8.47656 6.3069 8.7278 6.05566 8.7278 5.74574C8.7278 5.43581 8.47656 5.18457 8.16664 5.18457C7.85671 5.18457 7.60547 5.43581 7.60547 5.74574C7.60547 6.05566 7.85671 6.3069 8.16664 6.3069Z" fill="black"/>
<path d="M5.78997 8.64147C6.07606 8.64147 6.30797 8.40955 6.30797 8.12347C6.30797 7.83739 6.07606 7.60547 5.78997 7.60547C5.50389 7.60547 5.27197 7.83739 5.27197 8.12347C5.27197 8.40955 5.50389 8.64147 5.78997 8.64147Z" fill="black"/>
<path d="M3.41224 6.3069C3.72216 6.3069 3.97341 6.05566 3.97341 5.74574C3.97341 5.43581 3.72216 5.18457 3.41224 5.18457C3.10232 5.18457 2.85107 5.43581 2.85107 5.74574C2.85107 6.05566 3.10232 6.3069 3.41224 6.3069Z" fill="black"/>
<path d="M3.41224 8.64147C3.72216 8.64147 3.97341 8.40955 3.97341 8.12347C3.97341 7.83739 3.72216 7.60547 3.41224 7.60547C3.10232 7.60547 2.85107 7.83739 2.85107 8.12347C2.85107 8.40955 3.10232 8.64147 3.41224 8.64147Z" fill="black"/>
<path d="M3.41224 11.0618C3.72216 11.0618 3.97341 10.8105 3.97341 10.5006C3.97341 10.1907 3.72216 9.93945 3.41224 9.93945C3.10232 9.93945 2.85107 10.1907 2.85107 10.5006C2.85107 10.8105 3.10232 11.0618 3.41224 11.0618Z" fill="black"/>
<path d="M5.78997 11.0618C6.07606 11.0618 6.30797 10.8105 6.30797 10.5006C6.30797 10.1907 6.07606 9.93945 5.78997 9.93945C5.50389 9.93945 5.27197 10.1907 5.27197 10.5006C5.27197 10.8105 5.50389 11.0618 5.78997 11.0618Z" fill="black"/>
<path d="M8.16664 8.64147C8.47656 8.64147 8.7278 8.40955 8.7278 8.12347C8.7278 7.83739 8.47656 7.60547 8.16664 7.60547C7.85671 7.60547 7.60547 7.83739 7.60547 8.12347C7.60547 8.40955 7.85671 8.64147 8.16664 8.64147Z" fill="black"/>
<path d="M8.16664 11.0618C8.47656 11.0618 8.7278 10.8105 8.7278 10.5006C8.7278 10.1907 8.47656 9.93945 8.16664 9.93945C7.85671 9.93945 7.60547 10.1907 7.60547 10.5006C7.60547 10.8105 7.85671 11.0618 8.16664 11.0618Z" fill="black"/>
<path d="M10.5434 8.64147C10.8295 8.64147 11.0614 8.40955 11.0614 8.12347C11.0614 7.83739 10.8295 7.60547 10.5434 7.60547C10.2573 7.60547 10.0254 7.83739 10.0254 8.12347C10.0254 8.40955 10.2573 8.64147 10.5434 8.64147Z" fill="black"/>
<path d="M10.5434 11.0618C10.8295 11.0618 11.0614 10.8105 11.0614 10.5006C11.0614 10.1907 10.8295 9.93945 10.5434 9.93945C10.2573 9.93945 10.0254 10.1907 10.0254 10.5006C10.0254 10.8105 10.2573 11.0618 10.5434 11.0618Z" fill="black"/>
<path d="M5.78997 6.3069C6.07606 6.3069 6.30797 6.05566 6.30797 5.74574C6.30797 5.43581 6.07606 5.18457 5.78997 5.18457C5.50389 5.18457 5.27197 5.43581 5.27197 5.74574C5.27197 6.05566 5.50389 6.3069 5.78997 6.3069Z" fill="black"/>
<path d="M12.9069 3.28125V11.8131C12.9071 11.9567 12.879 12.099 12.8241 12.2318C12.7692 12.3645 12.6887 12.4852 12.5872 12.5868C12.4857 12.6885 12.3651 12.7691 12.2324 12.8241C12.0997 12.8791 11.9574 12.9074 11.8138 12.9074H5.71562C5.5705 12.9074 5.43132 12.9651 5.32871 13.0677C5.2261 13.1703 5.16846 13.3095 5.16846 13.4546C5.16846 13.5997 5.2261 13.7389 5.32871 13.8415C5.43132 13.9441 5.5705 14.0017 5.71562 14.0017H11.8185C12.3983 14.0008 12.9542 13.7701 13.3642 13.36C13.7743 12.95 14.005 12.3941 14.006 11.8143V3.28125" fill="black"/>
</g>
<defs>
<clipPath id="clip0_1303_4863">
<rect width="14" height="14" fill="white"/>
</clipPath>
</defs>
</svg>
