<svg width="29" height="35" viewBox="0 0 29 35" fill="none" xmlns="http://www.w3.org/2000/svg">
<path d="M23.9673 34.5056H1.06202C0.475831 34.5056 0 34.0298 0 33.4436V4.14382C0 3.55764 0.475812 3.08181 1.06202 3.08181H7.5709L10.3416 0.311121C10.5339 0.119261 10.7994 0 11.0925 0H27.049C27.6351 0 28.111 0.475812 28.111 1.06202V30.3618C28.111 30.948 27.6352 31.4238 27.049 31.4238H25.0292V33.4436C25.0292 34.0298 24.5533 34.5056 23.9671 34.5056L23.9673 34.5056ZM10.5747 3.08193H17.0185C17.3116 3.08193 17.577 3.20119 17.7694 3.39305L24.7182 10.3419C24.9251 10.5493 25.0288 10.8209 25.0288 11.0928L25.0293 29.3002H25.9871V2.12434H11.5326L10.5747 3.08193ZM18.0804 6.70768V10.0307H21.4035L18.0804 6.70768ZM22.9052 12.1547H17.0184C16.4322 12.1547 15.9564 11.6789 15.9564 11.0927V5.2059H2.12448V32.3818H22.9052V12.1547ZM6.56951 27.4247C5.98332 27.4247 5.50749 26.9489 5.50749 26.3627C5.50749 25.7765 5.9833 25.3007 6.56951 25.3007H18.4602C19.0464 25.3007 19.5222 25.7765 19.5222 26.3627C19.5222 26.9489 19.0464 27.4247 18.4602 27.4247H6.56951ZM6.56951 18.7926C5.98332 18.7926 5.50749 18.3168 5.50749 17.7306C5.50749 17.1444 5.9833 16.6685 6.56951 16.6685H18.4602C19.0464 16.6685 19.5222 17.1444 19.5222 17.7306C19.5222 18.3167 19.0464 18.7926 18.4602 18.7926H6.56951ZM6.56951 23.1085C5.98332 23.1085 5.50749 22.6327 5.50749 22.0465C5.50749 21.4603 5.9833 20.9844 6.56951 20.9844H18.4602C19.0464 20.9844 19.5222 21.4602 19.5222 22.0465C19.5222 22.6326 19.0464 23.1085 18.4602 23.1085H6.56951Z" fill="black"/>
</svg>
