<svg width="46" height="38" viewBox="0 0 46 38" fill="none" xmlns="http://www.w3.org/2000/svg">
<path d="M31.2645 33.7923H42.2085C42.1606 28.5121 41.6805 23.1843 36.5925 22.8483C34.3365 24.5763 32.3205 25.6323 30.3524 26.0163C29.9684 24.8163 29.3442 23.7124 28.5283 22.8003C30.5443 22.8964 32.5123 21.7443 35.4404 19.4404C46.4324 19.4404 45.6164 28.9924 45.6164 37.1524L31.2644 37.1521V35.6642V33.7922L31.2645 33.7923Z" fill="black"/>
<path d="M28.7204 0C34.2885 0 38.8484 4.55991 38.8484 10.128C38.8484 15.6961 34.2885 20.256 28.7204 20.256C26.8006 20.256 24.9764 19.728 23.4885 18.7681C24.1126 17.856 24.5924 16.8 24.9286 15.6483C26.0325 16.4163 27.3286 16.8483 28.7687 16.8483C32.5127 16.8483 35.5368 13.8242 35.5368 10.0802C35.5368 6.33617 32.5127 3.31209 28.7687 3.31209C26.3208 3.31209 24.1605 4.60817 22.9605 6.57592C22.7204 6.28797 22.5286 6.0479 22.2407 5.80784C21.6648 5.23194 21.0407 4.75184 20.3687 4.31992C22.1924 1.72809 25.2644 9.44955e-05 28.7205 9.44955e-05L28.7204 0Z" fill="black"/>
<path d="M3.0406 34.1276H27.0886C27.0407 29.4237 26.6085 24.6716 22.0485 24.3836C16.8645 28.3676 13.2165 28.3676 8.03251 24.3836C3.4726 24.6716 3.08843 29.4234 3.0406 34.1276ZM0.0165117 37.1514C0.0165117 29.9035 -0.799445 21.3594 9.04051 21.3594C14.1284 25.3913 15.9526 25.3913 21.0405 21.3594C30.8805 21.3594 30.1125 29.8555 30.1125 37.1514H0.0165117Z" fill="black"/>
<path d="M15.0406 4.03223C20.0324 4.03223 24.0646 8.06414 24.0646 13.0562C24.0646 18.0481 20.0327 22.0802 15.0406 22.0802C10.0484 22.0799 6.0166 18.048 6.0166 13.0562C6.0166 8.11223 10.0485 4.03223 15.0406 4.03223ZM15.0406 7.05631C11.7285 7.05631 9.0406 9.74423 9.0406 13.0563C9.0406 16.3684 11.7285 19.0563 15.0406 19.0563C18.3527 19.0563 21.0406 16.3684 21.0406 13.0563C21.0406 9.74423 18.3527 7.05631 15.0406 7.05631Z" fill="black"/>
</svg>
