<svg width="47" height="44" viewBox="0 0 47 44" fill="none" xmlns="http://www.w3.org/2000/svg">
<path d="M16.2241 43.8628H45.6308C46.2219 43.8628 46.7011 43.3836 46.7011 42.7926V1.97021C46.7011 1.37919 46.2219 0.9 45.6308 0.9H16.2241C15.6331 0.9 15.1539 1.37919 15.1539 1.97021V42.7926C15.1539 43.3836 15.6331 43.8628 16.2241 43.8628ZM44.5606 3.04043V41.7224H17.2943V3.04043H44.5606Z" fill="black" stroke="black" stroke-width="0.2"/>
<path d="M21.5601 43.863H30.2522C30.8432 43.863 31.3224 43.3838 31.3224 42.7928V30.4858C31.3224 29.8948 30.8432 29.4156 30.2522 29.4156H21.5601C20.969 29.4156 20.4898 29.8948 20.4898 30.4858V42.7928C20.4898 43.3838 20.969 43.863 21.5601 43.863ZM29.182 31.556V41.7226H22.6303V31.556H29.182Z" fill="black" stroke="black" stroke-width="0.2"/>
<path d="M21.5601 13.9707H28.0147C28.6057 13.9707 29.0849 13.4915 29.0849 12.9005V6.4458C29.0849 5.85477 28.6057 5.37559 28.0147 5.37559H21.5601C20.969 5.37559 20.4898 5.85477 20.4898 6.4458V12.9005C20.4898 13.4915 20.969 13.9707 21.5601 13.9707ZM26.9445 7.51601V11.8302H22.6303V7.51601H26.9445Z" fill="black" stroke="black" stroke-width="0.2"/>
<path d="M32.978 13.9707H39.4327C40.0237 13.9707 40.5029 13.4915 40.5029 12.9005V6.4458C40.5029 5.85477 40.0237 5.37559 39.4327 5.37559H32.978C32.387 5.37559 31.9078 5.85477 31.9078 6.4458V12.9005C31.9078 13.4915 32.387 13.9707 32.978 13.9707ZM38.3625 7.51601V11.8302H34.0482V7.51601H38.3625Z" fill="black" stroke="black" stroke-width="0.2"/>
<path d="M21.5601 25.7607H28.0147C28.6057 25.7607 29.0849 25.2815 29.0849 24.6905V18.2358C29.0849 17.6448 28.6057 17.1656 28.0147 17.1656H21.5601C20.969 17.1656 20.4898 17.6448 20.4898 18.2358V24.6905C20.4898 25.2815 20.969 25.7607 21.5601 25.7607ZM26.9445 19.3061V23.6203H22.6303V19.3061H26.9445Z" fill="black" stroke="black" stroke-width="0.2"/>
<path d="M32.978 25.7607H39.4327C40.0237 25.7607 40.5029 25.2815 40.5029 24.6905V18.2358C40.5029 17.6448 40.0237 17.1656 39.4327 17.1656H32.978C32.387 17.1656 31.9078 17.6448 31.9078 18.2358V24.6905C31.9078 25.2815 32.387 25.7607 32.978 25.7607ZM38.3625 19.3061V23.6203H34.0482V19.3061H38.3625Z" fill="black" stroke="black" stroke-width="0.2"/>
<path d="M16.7963 7.98531L16.7962 7.98525C16.4854 7.78858 16.0972 7.76528 15.7668 7.92103L1.514 14.6412C1.514 14.6412 1.514 14.6412 1.51399 14.6412C1.13934 14.8178 0.9 15.1949 0.9 15.6093V42.7925C0.9 43.3835 1.37919 43.8627 1.97021 43.8627H16.2231C16.8141 43.8627 17.2933 43.3835 17.2933 42.7925V8.88908C17.2933 8.5225 17.1057 8.18153 16.7963 7.98531ZM15.1528 10.577V41.7223H3.04043V16.2878L15.1528 10.577Z" fill="black" stroke="black" stroke-width="0.2"/>
<path d="M5.8706 25.7607H12.3253C12.9163 25.7607 13.3955 25.2815 13.3955 24.6905V18.2358C13.3955 17.6448 12.9163 17.1656 12.3253 17.1656H5.8706C5.27958 17.1656 4.80039 17.6448 4.80039 18.2358V24.6905C4.80039 25.2815 5.27958 25.7607 5.8706 25.7607ZM11.2551 19.3061V23.6203H6.94082V19.3061H11.2551Z" fill="black" stroke="black" stroke-width="0.2"/>
</svg>
