<svg width="46" height="43" viewBox="0 0 46 43" fill="none" xmlns="http://www.w3.org/2000/svg">
<path d="M44.2868 42.8076H30.258C29.5327 42.8076 28.9448 42.2197 28.9448 41.4945L28.9452 12.4948C28.9452 11.7696 29.5331 11.1816 30.2583 11.1816H44.2872C45.0124 11.1816 45.6003 11.7696 45.6003 12.4948V41.4945C45.6 42.2194 45.012 42.8076 44.2868 42.8076ZM31.5711 40.1813H42.9737V13.8078H31.5711V40.1813Z" fill="black"/>
<path d="M30.258 42.8074H1.31314C0.587923 42.8074 0 42.2195 0 41.4943V1.31314C0 0.587923 0.587949 0 1.31314 0H30.258C30.9832 0 31.5711 0.587949 31.5711 1.31314V41.4943C31.5708 42.2192 30.9829 42.8074 30.2577 42.8074H30.258ZM2.62629 40.1811H28.9449V2.6262H2.62629V40.1811Z" fill="black"/>
<path d="M15.121 42.8077H6.56461C5.83939 42.8077 5.25146 42.2197 5.25146 41.4945L5.2518 29.3805C5.2518 28.6553 5.83975 28.0674 6.56494 28.0674H15.1209C15.8462 28.0674 16.4341 28.6553 16.4341 29.3805V41.4937C16.4338 42.2189 15.8458 42.8072 15.1209 42.8072L15.121 42.8077ZM7.87775 40.1813H13.8078V30.6936H7.87775V40.1813Z" fill="black"/>
<path d="M12.9178 13.3848H6.56461C5.83939 13.3848 5.25146 12.7968 5.25146 12.0716V5.71842C5.25146 4.9932 5.83941 4.40527 6.56461 4.40527H12.9178C13.6431 4.40527 14.231 4.99322 14.231 5.71842V12.0716C14.2306 12.7965 13.6427 13.3848 12.9178 13.3848ZM7.87741 10.7584H11.6046V7.03122H7.87741V10.7584Z" fill="black"/>
<path d="M24.1568 13.3848H17.8029C17.0777 13.3848 16.4897 12.7968 16.4897 12.0716V5.71842C16.4897 4.9932 17.0777 4.40527 17.8029 4.40527H24.1568C24.882 4.40527 25.4699 4.99322 25.4699 5.71842V12.0716C25.4696 12.7965 24.8817 13.3848 24.1568 13.3848ZM19.116 10.7584H22.8436V7.03122H19.116V10.7584Z" fill="black"/>
<path d="M40.2259 24.9903H33.8727C33.1475 24.9903 32.5596 24.4023 32.5596 23.6771L32.5599 17.3239C32.5599 16.5987 33.1479 16.0107 33.873 16.0107H40.2263C40.9515 16.0107 41.5394 16.5987 41.5394 17.3239V23.6771C41.5391 24.4023 40.9511 24.9903 40.2259 24.9903ZM35.1859 22.3642H38.9131V18.637H35.1859V22.3642Z" fill="black"/>
<path d="M12.9178 24.9903H6.56461C5.83939 24.9903 5.25146 24.4023 5.25146 23.6771V17.3239C5.25146 16.5987 5.83941 16.0107 6.56461 16.0107H12.9178C13.6431 16.0107 14.231 16.5987 14.231 17.3239V23.6771C14.2306 24.4023 13.6427 24.9903 12.9178 24.9903ZM7.87741 22.3642H11.6046V18.637H7.87741V22.3642Z" fill="black"/>
<path d="M24.1568 24.9903H17.8029C17.0777 24.9903 16.4897 24.4023 16.4897 23.6771V17.3239C16.4897 16.5987 17.0777 16.0107 17.8029 16.0107H24.1568C24.882 16.0107 25.4699 16.5987 25.4699 17.3239V23.6771C25.4696 24.4023 24.8817 24.9903 24.1568 24.9903ZM19.116 22.3642H22.8436V18.637H19.116V22.3642Z" fill="black"/>
</svg>
