<svg width="46" height="39" viewBox="0 0 46 39" fill="none" xmlns="http://www.w3.org/2000/svg">
<path d="M3.3222 6.39572L31.6902 3.27589L32.0742 6.73189H35.2423L34.6664 1.40389C34.6186 0.971971 34.4264 0.635817 34.0905 0.347894C33.7544 0.0599452 33.3707 -0.0361493 32.9384 0.0117307L1.40159 3.41956C0.537762 3.51565 -0.0863232 4.28339 0.00976248 5.14756L2.74593 30.0116C2.79381 30.4435 2.986 30.8275 3.32183 31.0676C3.60978 31.3076 3.94593 31.4037 4.33 31.4037H4.52186L7.64169 31.0676V27.8995L5.72186 28.0913L3.3222 6.39572Z" fill="black"/>
<path d="M44.0262 9.85216H12.3462C11.4824 9.85216 10.7622 10.572 10.7622 11.4362V36.4442C10.7622 37.308 11.4821 38.0282 12.3462 38.0282H44.0262C44.89 38.0282 45.6102 37.3083 45.6102 36.4442V11.4353C45.6102 10.5715 44.8903 9.85156 44.0262 9.85156V9.85216ZM42.4422 13.0199V27.4199L35.0021 19.9802C34.378 19.3561 33.3702 19.3561 32.7461 19.9802L25.7383 26.988L22.8103 24.06C22.2344 23.4841 21.1784 23.4841 20.5543 24.06L13.9302 30.7802V13.0202L42.4422 13.0199ZM29.0982 34.8599H14.3142L21.706 27.4681L29.0982 34.8599ZM33.5624 34.8599L27.9943 29.2439L33.8982 23.34L42.4422 31.884V34.8599H33.5624Z" fill="black"/>
<path d="M21.8981 18.5396C21.8981 19.8652 20.8237 20.9396 19.4981 20.9396C18.1726 20.9396 17.0981 19.8652 17.0981 18.5396C17.0981 17.2141 18.1726 16.1396 19.4981 16.1396C20.8237 16.1396 21.8981 17.2141 21.8981 18.5396Z" fill="black"/>
</svg>
