<svg width="33" height="42" viewBox="0 0 33 42" fill="none" xmlns="http://www.w3.org/2000/svg">
<path fill-rule="evenodd" clip-rule="evenodd" d="M28.4246 42H4.5C2.01463 42 0 39.9854 0 37.5V4.5C0 2.01463 2.01463 0 4.5 0H18.252C19.4503 0 20.5995 0.478457 21.4438 1.32754L31.6164 11.5653C32.4535 12.4083 32.9246 13.5481 32.9246 14.7377V37.5C32.9246 39.9854 30.9099 42 28.4246 42ZM18 3H4.5C3.67198 3 3 3.67198 3 4.5V37.5C3 38.328 3.67198 39 4.5 39H28.4246C29.2526 39 29.9246 38.328 29.9246 37.5V15H22.4996C20.0142 15 17.9996 12.9854 17.9996 10.5L18 3ZM27.8186 12L20.9996 5.13754V10.5C20.9996 11.328 21.6716 12 22.4996 12H27.8186ZM7.5 19.5C6.67198 19.5 6 18.828 6 18C6 17.172 6.67198 16.5 7.5 16.5H19.5C20.328 16.5 21 17.172 21 18C21 18.828 20.328 19.5 19.5 19.5H7.5ZM7.5 34.5C6.67198 34.5 6 33.828 6 33C6 32.172 6.67198 31.5 7.5 31.5H25.5C26.328 31.5 27 32.172 27 33C27 33.828 26.328 34.5 25.5 34.5H7.5ZM7.5 27C6.67198 27 6 26.328 6 25.5C6 24.672 6.67198 24 7.5 24H25.5C26.328 24 27 24.672 27 25.5C27 26.328 26.328 27 25.5 27H7.5Z" fill="black"/>
</svg>
