<svg width="30" height="30" viewBox="0 0 30 30" fill="none" xmlns="http://www.w3.org/2000/svg">
<path d="M6.05711 19.0966H23.4807C23.9581 19.0966 24.3459 18.7096 24.3459 18.2314C24.3459 17.754 23.9583 17.3662 23.4807 17.3662H6.05711C5.57887 17.3662 5.1919 17.7538 5.1919 18.2314C5.19134 18.7094 5.57917 19.0966 6.05711 19.0966Z" fill="black"/>
<path d="M17.3652 21.6933C17.3652 21.2159 16.9776 20.8281 16.5 20.8281H6.05711C5.57887 20.8281 5.19189 21.2157 5.19189 21.6933C5.19189 22.1716 5.5789 22.5586 6.05711 22.5586H16.5C16.9776 22.5586 17.3652 22.1713 17.3652 21.6933Z" fill="black"/>
<path d="M23.4802 20.8271H19.9609C19.4827 20.8271 19.0957 21.2147 19.0957 21.6924C19.0957 22.1706 19.4827 22.5576 19.9609 22.5576H23.4802C23.9576 22.5576 24.3454 22.1706 24.3454 21.6924C24.3454 21.2147 23.9581 20.8271 23.4802 20.8271Z" fill="black"/>
<path d="M14.775 10.2377C16.2186 10.2377 17.3916 9.05385 17.3707 7.60378C17.3509 6.19278 16.1869 5.04492 14.775 5.04492C13.3554 5.04492 12.1787 6.20871 12.1787 7.64121C12.1787 9.07342 13.3436 10.2378 14.775 10.2378V10.2377ZM14.775 6.77592C15.2044 6.77592 15.6199 7.09902 15.6402 7.64785C15.6371 8.12218 15.2501 8.50692 14.775 8.50692C14.2926 8.50692 13.9036 8.11071 13.9098 7.62799C13.9173 7.15813 14.3049 6.77592 14.775 6.77592Z" fill="black"/>
<path d="M28.673 24.4037H27.8078V7.61512C27.8078 7.13772 27.4203 6.74991 26.9426 6.74991H22.5802V6.11905C22.5802 5.70917 22.2934 5.35591 21.8927 5.27227L20.6215 5.00524C20.1156 4.89949 19.816 4.37941 19.9772 3.88889L20.3815 2.65617C20.509 2.26722 20.3464 1.84146 19.992 1.63717L17.3564 0.115958C17.0021 -0.088842 16.552 -0.0168562 16.2789 0.288394L15.4137 1.25518C15.0696 1.63967 14.4684 1.63967 14.1243 1.25518L13.2591 0.288394C12.9859 -0.016849 12.5359 -0.0882777 12.1815 0.115958L9.54594 1.63717C9.1916 1.84197 9.02892 2.26719 9.15644 2.65696L9.56129 3.88882C9.72201 4.37933 9.42151 4.90053 8.91649 5.00632L7.64699 5.27222C7.24631 5.35593 6.95893 5.70972 6.95893 6.11901V6.74903H2.5965C2.11826 6.74903 1.73129 7.13659 1.73129 7.61425V24.4028L0.865215 24.4031C0.386979 24.4031 0 24.7907 0 25.2683V26.9416C0 28.373 1.16493 29.5379 2.59629 29.5379H26.942C28.3734 29.5379 29.5383 28.373 29.5383 26.9416V25.2683C29.5383 24.7915 29.1504 24.4037 28.673 24.4037ZM8.68947 6.82227L9.2715 6.70034C10.7846 6.38282 11.6875 4.81919 11.2062 3.34962L11.0209 2.78461L12.4389 1.96625L12.8352 2.40933C13.8659 3.56197 15.6722 3.56197 16.7034 2.40933L17.0996 1.96625L18.5176 2.78461L18.3324 3.34878C17.85 4.81778 18.7526 6.382 20.2659 6.69892L20.848 6.82085V8.45842L20.2651 8.58035C18.7525 8.89732 17.8491 10.4609 18.331 11.9311L18.5162 12.4952L17.0982 13.3136L16.702 12.8705C15.6707 11.7184 13.8644 11.7184 12.8337 12.8705L12.4375 13.3136L11.0195 12.4952L11.2054 11.9297C11.6872 10.4607 10.7838 8.89645 9.27007 8.58002L8.6886 8.45809L8.68888 6.82224L8.68947 6.82227ZM3.46126 8.48077H6.95847V9.16213C6.95847 9.57201 7.24586 9.92527 7.64653 10.0095L8.9166 10.2754C9.42134 10.3806 9.7221 10.9012 9.56141 11.3912L9.15655 12.6242C9.02848 13.0137 9.19171 13.4389 9.54606 13.644L12.1816 15.1652C12.536 15.37 12.9861 15.298 13.2592 14.9927L14.1244 14.026C14.4684 13.6415 15.0697 13.6415 15.4138 14.026L16.279 14.9927C16.5521 15.298 17.0013 15.37 17.3566 15.1652L19.9916 13.644C20.3468 13.4392 20.5092 13.0139 20.3811 12.6242L19.9763 11.3929C19.8156 10.9018 20.1152 10.3812 20.6205 10.2754L21.8906 10.0089C22.2913 9.92522 22.5787 9.57199 22.5787 9.16214V8.48078H26.0759V24.4036H3.46016L3.46044 8.48078L3.46126 8.48077ZM17.3655 26.1351V27.8083H12.173V26.1351H17.3655ZM1.73054 26.9426V26.1351H10.442V27.8083H2.59554C2.1187 27.8083 1.73033 27.4202 1.73033 26.9426H1.73054ZM27.8084 26.9426C27.8084 27.4194 27.42 27.8078 26.9432 27.8078H19.0968V26.1345H27.8082L27.8084 26.9426Z" fill="black"/>
</svg>
