<svg width="27" height="36" viewBox="0 0 27 36" fill="none" xmlns="http://www.w3.org/2000/svg">
<path d="M24.0899 2.93389H19.1479C19.0703 2.61469 18.8867 2.33121 18.6269 2.12974C18.3674 1.92829 18.0474 1.82059 17.7187 1.8245H16.7187C16.2751 0.753929 15.0002 0 13.4567 0C11.9132 0 10.6378 0.753929 10.1959 1.8245H9.19586C8.86745 1.82059 8.54742 1.92829 8.28793 2.12974C8.02844 2.33147 7.84485 2.61468 7.767 2.93389H2.82364C2.07507 2.93472 1.35714 3.23271 0.827857 3.76203C0.298557 4.29133 0.000857143 5.00896 0 5.7576V33.1762C0.000837071 33.9247 0.29855 34.6424 0.827857 35.172C1.35716 35.7013 2.07507 35.999 2.82364 35.9998H24.0901C24.8386 35.999 25.5566 35.7013 26.0859 35.172C26.6152 34.6424 26.9129 33.9247 26.9137 33.1762V5.7576C26.9129 5.00903 26.6152 4.29139 26.0859 3.76203C25.5566 3.23273 24.8384 2.93474 24.0899 2.93389ZM21.9063 26.5939L18.5787 26.5942C18.1164 26.5953 17.7419 26.9697 17.7409 27.432V31.0721H5.00729V7.86066H7.99779C8.27764 8.24124 8.72215 8.46502 9.19451 8.46307H17.7188C18.1912 8.46474 18.6359 8.24096 18.9161 7.86066H21.9066L21.9063 26.5939ZM20.8206 28.27L19.4169 29.7797V28.2702L20.8206 28.27ZM9.40707 3.50067H10.8666C11.089 3.50095 11.3022 3.41278 11.4596 3.25541C11.6166 3.09833 11.7048 2.88516 11.7048 2.66278C11.7048 2.1971 12.454 1.67642 13.4567 1.67642C14.4595 1.67642 15.2084 2.19651 15.2084 2.66278C15.2095 3.12511 15.5839 3.49956 16.0462 3.50064H17.5063V6.78749H9.40703L9.40707 3.50067ZM25.2371 33.1764C25.2368 33.4808 25.116 33.7724 24.9006 33.9875C24.6855 34.2026 24.3939 34.3237 24.0895 34.324H2.82308C2.51867 34.3237 2.22709 34.2026 2.01201 33.9875C1.79661 33.7723 1.67579 33.4808 1.67551 33.1764V5.75781C1.67579 5.45369 1.79661 5.16183 2.01201 4.94674C2.22713 4.73162 2.51871 4.61053 2.82308 4.61025H7.73044V6.18504H4.16851C3.94641 6.18504 3.73296 6.27321 3.57587 6.43057C3.41879 6.58766 3.33034 6.80083 3.33061 7.02321V31.9118C3.33034 32.1339 3.41879 32.3473 3.57587 32.5044C3.73296 32.6615 3.94641 32.75 4.16851 32.7497H18.3285C18.3687 32.7488 18.4089 32.7449 18.4485 32.7377C18.4909 32.7452 18.5341 32.7491 18.5771 32.7497C18.8101 32.7497 19.0328 32.6529 19.1915 32.4824L23.3572 28.0024C23.3865 27.9715 23.4133 27.9383 23.4373 27.9028C23.4404 27.8975 23.4429 27.892 23.4465 27.8872C23.4694 27.8515 23.4895 27.8141 23.5068 27.7753C23.5132 27.7614 23.5188 27.7474 23.5241 27.7329C23.5375 27.6986 23.5484 27.6632 23.5567 27.6272C23.5598 27.6143 23.564 27.6021 23.5662 27.5873C23.5754 27.5384 23.5807 27.4888 23.5813 27.4388V7.02312C23.5813 6.80074 23.4931 6.58757 23.3357 6.43048C23.1787 6.27312 22.9655 6.18494 22.7431 6.18494H19.1818V4.61016H24.0891C24.3935 4.61044 24.6851 4.73153 24.9002 4.94665C25.1156 5.16177 25.2364 5.45363 25.2367 5.75772L25.2371 33.1764ZM19.6623 12.6864C19.6612 13.1487 19.2867 13.5235 18.8244 13.5242H8.28943C7.82653 13.5242 7.45157 13.1492 7.45157 12.6864C7.45157 12.2235 7.82657 11.8485 8.28943 11.8485H18.8244C19.2868 11.8496 19.6612 12.2241 19.6623 12.6864ZM19.6623 16.9001C19.6612 17.3624 19.2867 17.7369 18.8244 17.738H8.28943C7.82653 17.738 7.45157 17.3627 7.45157 16.9001C7.45157 16.4372 7.82657 16.062 8.28943 16.062H18.8244C19.2868 16.0631 19.6612 16.4378 19.6623 16.9001ZM19.6623 21.1138C19.6612 21.5761 19.2867 21.9506 18.8244 21.9517H8.28943C7.84913 21.921 7.50736 21.5549 7.50736 21.1135C7.50736 20.6721 7.84916 20.306 8.28943 20.2757H18.8244C19.2868 20.2768 19.6612 20.6515 19.6623 21.1138ZM15.8316 25.3275C15.8316 25.5499 15.7435 25.7628 15.5864 25.9202C15.4293 26.0772 15.2161 26.1657 14.994 26.1657H8.28953C7.82663 26.1657 7.45167 25.7904 7.45167 25.3276C7.45167 24.8647 7.82667 24.4897 8.28953 24.4897H14.994C15.2161 24.4897 15.4293 24.5779 15.5864 24.735C15.7435 24.8923 15.8316 25.1054 15.8316 25.3275Z" fill="black"/>
</svg>
