<svg width="24" height="24" viewBox="0 0 24 24" fill="none" xmlns="http://www.w3.org/2000/svg">
<g clip-path="url(#clip0_1301_4716)">
<path d="M10.1538 4H6.46154C5.8087 4 5.1826 4.25934 4.72097 4.72097C4.25934 5.1826 4 5.8087 4 6.46154V17.5385C4 18.1913 4.25934 18.8174 4.72097 19.279C5.1826 19.7407 5.8087 20 6.46154 20H17.5385C18.1913 20 18.8174 19.7407 19.279 19.279C19.7407 18.8174 20 18.1913 20 17.5385V13.8462" stroke="black" stroke-width="2" stroke-linecap="round" stroke-linejoin="round"/>
<path d="M9 15.0002H12L20.5 6.50023C20.8978 6.1024 21.1213 5.56284 21.1213 5.00023C21.1213 4.43762 20.8978 3.89805 20.5 3.50023C20.1022 3.1024 19.5626 2.87891 19 2.87891C18.4374 2.87891 17.8978 3.1024 17.5 3.50023L9 12.0002V15.0002Z" stroke="black" stroke-width="2" stroke-linecap="round" stroke-linejoin="round"/>
<path d="M16 5L19 8" stroke="black" stroke-width="2" stroke-linecap="round" stroke-linejoin="round"/>
</g>
<defs>
<clipPath id="clip0_1301_4716">
<rect width="24" height="24" fill="white"/>
</clipPath>
</defs>
</svg>
