<svg width="33" height="45" viewBox="0 0 33 45" fill="none" xmlns="http://www.w3.org/2000/svg">
<path d="M30 3H25.5C25.5 1.34563 24.1544 0 22.5 0H10.5C8.84563 0 7.5 1.34563 7.5 3H3C1.34563 3 0 4.34563 0 6V42C0 43.6544 1.34563 45 3 45H30C31.6544 45 33 43.6544 33 42V6C33 4.34563 31.6544 3 30 3ZM10.5 3H22.5L22.4956 6H10.4999L10.5 3ZM30 42H3V6H7.5C7.5 7.65437 8.84563 9 10.5 9H22.5C24.1544 9 25.5 7.65437 25.5 6H30V42Z" fill="black"/>
<path d="M8.99983 15.8787L7.0602 13.9395L4.93945 16.0602L8.99983 20.1209L14.5602 14.5602L12.4395 12.4395L8.99983 15.8787Z" fill="black"/>
<path d="M16.5 15H27V18H16.5V15Z" fill="black"/>
<path d="M8.99983 24.8787L7.0602 22.9395L4.93945 25.0602L8.99983 29.1209L14.5602 23.5602L12.4395 21.4395L8.99983 24.8787Z" fill="black"/>
<path d="M16.5 24H27V27H16.5V24Z" fill="black"/>
<path d="M8.99983 33.8787L7.0602 31.9395L4.93945 34.0602L8.99983 38.1209L14.5602 32.5602L12.4395 30.4395L8.99983 33.8787Z" fill="black"/>
<path d="M16.5 33H27V36H16.5V33Z" fill="black"/>
</svg>
